<svg xmlns="http://www.w3.org/2000/svg" viewBox="0 0 838.91 148.69"><defs><style>.cls-1{fill:#000000;}</style></defs><g id="Layer_2" data-name="Layer 2"><g id="MOTS-SYMBOLES"><path class="cls-1" d="M0,0V22.66H43.88V146.32H68.29V22.66H398.1V0ZM424.9,0V22.66h.31V0Z"/><path class="cls-1" d="M424.9,0V146.32h.31V0Z"/><path class="cls-1" d="M182.29,102.3v-.16a23.68,23.68,0,0,0,9.45-5.1,30.44,30.44,0,0,0,3.47-3.81,25.43,25.43,0,0,0,3-5.18,33.37,33.37,0,0,0,2.14-6.82,43.29,43.29,0,0,0,.79-8.72A58.68,58.68,0,0,0,200,59.79a33.19,33.19,0,0,0-3.47-9.29,22.78,22.78,0,0,0-5.29-6.36,25.09,25.09,0,0,0-6.74-3.92,34,34,0,0,0-7.85-2,62.4,62.4,0,0,0-8.49-.57H127.68V146.32H146V106.41h18l20.34,39.91h20.87ZM168,89.19H146V54.61h21.56a20.08,20.08,0,0,1,6.09.88,11.33,11.33,0,0,1,4.69,2.85,13.11,13.11,0,0,1,3,5.22,26.52,26.52,0,0,1,1,7.89Q182.29,89.2,168,89.19Z"/><path class="cls-1" d="M287.11,37.63v72.66A35.76,35.76,0,0,1,285.77,121a14.19,14.19,0,0,1-4.07,6.59,15.56,15.56,0,0,1-6.82,3.35,42.68,42.68,0,0,1-9.56.95A47.51,47.51,0,0,1,255,130.9a14.79,14.79,0,0,1-6.82-3.35,13.48,13.48,0,0,1-3.77-6.59,41.55,41.55,0,0,1-1.14-10.67V37.63H225.18v74a54.31,54.31,0,0,0,2.21,16.41,26.59,26.59,0,0,0,7,11.54,30.28,30.28,0,0,0,12.46,6.82,65.7,65.7,0,0,0,18.43,2.25,64.54,64.54,0,0,0,18.4-2.29,30,30,0,0,0,12.38-6.89,26.8,26.8,0,0,0,7-11.62,56,56,0,0,0,2.18-16.53V37.63Z"/><path class="cls-1" d="M350.86,129.34V99.86h39.46V83.18H350.86V54.61h47.08v-17H332.58V146.32H398.1v-17Z"/><path class="cls-1" d="M532.93,45.53a79.48,79.48,0,0,0-5.69-19.28,43.91,43.91,0,0,0-8.93-13.12,39.75,39.75,0,0,0-11.58-8,52.23,52.23,0,0,0-13.79-4A103.87,103.87,0,0,0,477.4,0h-5.19V22.88q4.64,0,8.93.29a35.13,35.13,0,0,1,9.28,1.8,22.9,22.9,0,0,1,7.75,4.51,24.63,24.63,0,0,1,5.89,8.46,54.74,54.74,0,0,1,3.8,13.69,130.12,130.12,0,0,1,1.33,20.15,140.52,140.52,0,0,1-1.39,21.58,60.07,60.07,0,0,1-3.89,14.51,25,25,0,0,1-6.05,8.87,24.11,24.11,0,0,1-7.79,4.67,31.9,31.9,0,0,1-9.18,1.79q-4.23.22-8.68.25v22.87h5.19a112.55,112.55,0,0,0,16.36-1.12,49.85,49.85,0,0,0,14-4.16,38,38,0,0,0,11.44-8.3,44.7,44.7,0,0,0,8.51-13.54,86.19,86.19,0,0,0,5.33-19.89A176.81,176.81,0,0,0,534.93,72,153.68,153.68,0,0,0,532.93,45.53ZM424.9,0V146.32h.31V0Z"/><polygon class="cls-1" points="449.51 22.87 449.51 123.46 449.55 123.46 449.55 146.32 425.21 146.32 425.21 0 449.55 0 449.55 22.87 449.51 22.87"/><path class="cls-1" d="M607.27,37.63H583.05L547.78,146.32h20l8.76-29.47h37l9.14,29.47h20.19Zm-25.89,62.84,13.4-46h.31l13.4,46Z"/><path class="cls-1" d="M712.39,102.3v-.16a23.75,23.75,0,0,0,9.45-5.1,29.65,29.65,0,0,0,3.46-3.81,25,25,0,0,0,3.05-5.18,32.78,32.78,0,0,0,2.13-6.82,42.53,42.53,0,0,0,.8-8.72,58,58,0,0,0-1.22-12.72,32.88,32.88,0,0,0-3.46-9.29,22.81,22.81,0,0,0-5.3-6.36,24.94,24.94,0,0,0-6.74-3.92,33.93,33.93,0,0,0-7.84-2,62.44,62.44,0,0,0-8.5-.57H657.78V146.32h18.28V106.41h18.05l20.34,39.91h20.87ZM698.07,89.19h-22V54.61h21.55a20.1,20.1,0,0,1,6.1.88,11.24,11.24,0,0,1,4.68,2.85,12.88,12.88,0,0,1,3,5.22,26.18,26.18,0,0,1,1,7.89Q712.39,89.2,698.07,89.19Z"/><path class="cls-1" d="M806.85,90.18l30.31-52.55h-21.1L790.7,82H773.94V37.63H755.66V146.32h18.28V99H790.7l26.81,47.3h21.4Z"/></g></g></svg>